<svg width="42" height="42" viewBox="0 0 42 42" fill="none" xmlns="http://www.w3.org/2000/svg">
<path d="M2.625 36.75H13.125V39.375H2.625V36.75Z" fill="#3F51B5"/>
<path d="M22.3125 38.0624C22.1159 38.0623 21.9218 38.018 21.7446 37.9328C21.5674 37.8476 21.4116 37.7237 21.2887 37.5702L16.4325 31.4999H2.625V28.8749H17.0625C17.2591 28.875 17.4532 28.9193 17.6304 29.0045C17.8076 29.0897 17.9634 29.2136 18.0862 29.3671L22.2167 34.5278L29.0955 24.209C29.212 24.0343 29.3686 23.8902 29.5523 23.7886C29.736 23.6871 29.9414 23.631 30.1512 23.6253C30.361 23.6195 30.5692 23.6641 30.7582 23.7554C30.9472 23.8467 31.1116 23.982 31.2375 24.1499L34.7812 28.8749H39.375V31.4999H34.125C33.9212 31.4999 33.7203 31.4525 33.538 31.3613C33.3558 31.2702 33.1973 31.1379 33.075 30.9749L30.2505 27.208L23.4045 37.4783C23.29 37.6501 23.1365 37.7925 22.9565 37.8938C22.7766 37.995 22.5752 38.0524 22.3689 38.0611L22.3125 38.0624Z" fill="#3F51B5"/>
<path d="M14.4375 21V14.4375H15.75C17.1419 14.4358 18.4762 13.8821 19.4604 12.8979C20.4446 11.9137 20.9983 10.5794 21 9.1875V5.25H17.0625C15.7185 5.2522 14.4271 5.77262 13.4571 6.70294C12.7774 5.46888 11.7793 4.43964 10.5667 3.72242C9.35407 3.0052 7.97134 2.62623 6.5625 2.625H2.625V6.5625C2.62743 8.65033 3.4579 10.652 4.93422 12.1283C6.41054 13.6046 8.41217 14.4351 10.5 14.4375H11.8125V21H2.625V23.625H21V21H14.4375ZM17.0625 7.875H18.375V9.1875C18.3743 9.88348 18.0975 10.5508 17.6054 11.0429C17.1133 11.535 16.446 11.8118 15.75 11.8125H14.4375V10.5C14.4382 9.80402 14.715 9.13674 15.2071 8.64461C15.6992 8.15248 16.3665 7.87569 17.0625 7.875ZM10.5 11.8125C9.10815 11.8108 7.7738 11.2571 6.78961 10.2729C5.80542 9.2887 5.25174 7.95435 5.25 6.5625V5.25H6.5625C7.95435 5.25174 9.2887 5.80542 10.2729 6.78961C11.2571 7.7738 11.8108 9.10815 11.8125 10.5V11.8125H10.5Z" fill="#3F51B5"/>
</svg>
