<svg width="45" height="45" viewBox="0 0 45 45" fill="none" xmlns="http://www.w3.org/2000/svg">
<path d="M22.5 41.25C24.5625 41.25 26.25 39.5625 26.25 37.5H18.75C18.75 38.4946 19.1451 39.4484 19.8484 40.1516C20.5516 40.8549 21.5054 41.25 22.5 41.25ZM33.75 30V20.625C33.75 14.8688 30.675 10.05 25.3125 8.775V7.5C25.3125 5.94375 24.0562 4.6875 22.5 4.6875C20.9438 4.6875 19.6875 5.94375 19.6875 7.5V8.775C14.3063 10.05 11.25 14.85 11.25 20.625V30L7.5 33.75V35.625H37.5V33.75L33.75 30Z" fill="white"/>
</svg>
